<svg width="18" height="19" viewBox="0 0 18 19" fill="none" xmlns="http://www.w3.org/2000/svg">
<path id="Vector" d="M17.7384 7.71414H9.46166V11.1443H14.2247C13.7814 13.3241 11.9257 14.5765 9.46166 14.5765C8.77218 14.5777 8.08926 14.4427 7.45205 14.1794C6.81484 13.916 6.23589 13.5295 5.7484 13.0419C5.26091 12.5543 4.87447 11.9753 4.61125 11.338C4.34804 10.7008 4.21322 10.0178 4.21452 9.32834C4.21335 8.63895 4.34826 7.9561 4.61154 7.31896C4.87482 6.68181 5.26127 6.1029 5.74875 5.61543C6.23622 5.12795 6.81513 4.74149 7.45228 4.47822C8.08942 4.21494 8.77227 4.08003 9.46166 4.0812C10.7131 4.0812 11.8442 4.52551 12.7318 5.25209L15.3161 2.66878C13.7417 1.29611 11.7229 0.449257 9.46166 0.449257C8.29456 0.445845 7.13829 0.673207 6.05937 1.11826C4.98045 1.56332 4.00016 2.21729 3.17489 3.04256C2.34962 3.86784 1.69565 4.84812 1.25059 5.92704C0.805534 7.00597 0.578172 8.16223 0.581584 9.32934C0.57804 10.4965 0.805312 11.6528 1.25032 12.7318C1.69533 13.8108 2.3493 14.7911 3.1746 15.6164C3.9999 16.4417 4.98024 17.0957 6.05922 17.5407C7.1382 17.9857 8.29452 18.213 9.46166 18.2094C13.9017 18.2094 17.9392 14.98 17.9392 9.32934C17.9392 8.80452 17.8587 8.23896 17.7384 7.71414Z" fill="#032B44"/>
</svg>
