<svg width="22" height="22" viewBox="0 0 22 22" fill="none" xmlns="http://www.w3.org/2000/svg">
<g id="Frame 1486">
<rect id="Rectangle 1065" width="18.8944" height="18.8944" rx="4.44573" transform="matrix(-1 0 0 1 19.8862 2.09961)" fill="#032B44"/>
<path id="Vector" d="M10.4993 5.91406C9.06809 5.91406 7.69554 6.48184 6.68355 7.4925C5.67156 8.50316 5.10303 9.8739 5.10303 11.3032C5.10303 12.7325 5.67156 14.1032 6.68355 15.1139C7.69554 16.1245 9.06809 16.6923 10.4993 16.6923C11.9304 16.6923 13.303 16.1245 14.315 15.1139C15.327 14.1032 15.8955 12.7325 15.8955 11.3032C15.8955 9.8739 15.327 8.50316 14.315 7.4925C13.303 6.48184 11.9304 5.91406 10.4993 5.91406ZM10.4993 14.8031C9.56949 14.8031 8.67781 14.4342 8.02037 13.7776C7.36292 13.1211 6.99358 12.2306 6.99358 11.302C6.99358 10.3735 7.36292 9.48297 8.02037 8.82639C8.67781 8.16982 9.56949 7.80095 10.4993 7.80095C11.429 7.80095 12.3207 8.16982 12.9782 8.82639C13.6356 9.48297 14.0049 10.3735 14.0049 11.302C14.0049 12.2306 13.6356 13.1211 12.9782 13.7776C12.3207 14.4342 11.429 14.8031 10.4993 14.8031Z" fill="#F1FAFF"/>
<path id="Vector_2" d="M16.1096 6.97173C16.8044 6.97173 17.3676 6.40923 17.3676 5.71536C17.3676 5.02148 16.8044 4.45898 16.1096 4.45898C15.4148 4.45898 14.8516 5.02148 14.8516 5.71536C14.8516 6.40923 15.4148 6.97173 16.1096 6.97173Z" fill="#F1FAFF"/>
<path id="Vector_3" d="M20.4588 4.4383C20.1886 3.74156 19.7758 3.10883 19.2466 2.58061C18.7175 2.0524 18.0838 1.64033 17.386 1.37079C16.5695 1.06469 15.7069 0.899174 14.835 0.881294C13.7111 0.832345 13.3552 0.818359 10.5054 0.818359C7.65556 0.818359 7.29028 0.818359 6.17579 0.881294C5.30449 0.89826 4.44251 1.06381 3.62705 1.37079C2.92911 1.64002 2.29522 2.05197 1.76607 2.58023C1.23691 3.10849 0.824172 3.74138 0.554328 4.4383C0.247761 5.25368 0.0824075 6.11522 0.0653523 6.98601C0.0151711 8.10719 0 8.46266 0 11.3099C0 14.156 -8.69487e-09 14.5184 0.0653523 15.6338C0.0828574 16.5055 0.247405 17.3657 0.554328 18.1827C0.82493 18.8793 1.23807 19.512 1.76736 20.0401C2.29664 20.5683 2.93043 20.9804 3.62822 21.2502C4.44213 21.5686 5.30447 21.7459 6.17813 21.7746C7.30195 21.8236 7.65789 21.8387 10.5077 21.8387C13.3575 21.8387 13.7228 21.8387 14.8373 21.7746C15.7092 21.7569 16.5717 21.5918 17.3884 21.2863C18.086 21.0161 18.7195 20.6037 19.2486 20.0753C19.7776 19.547 20.1906 18.9143 20.4611 18.2176C20.768 17.4018 20.9326 16.5417 20.9501 15.6699C21.0003 14.5487 21.0154 14.1933 21.0154 11.346C21.0154 8.49879 21.0154 8.13749 20.9501 7.02214C20.9365 6.13903 20.7703 5.26491 20.4588 4.4383ZM19.0374 15.5475C19.0298 16.2192 18.9071 16.8846 18.6744 17.5148C18.4992 17.9681 18.2309 18.3796 17.8868 18.7231C17.5427 19.0665 17.1304 19.3342 16.6765 19.509C16.0524 19.7402 15.3932 19.8628 14.7276 19.8714C13.619 19.9227 13.3062 19.9355 10.4634 19.9355C7.61821 19.9355 7.32763 19.9355 6.19797 19.8714C5.53269 19.8633 4.87379 19.7407 4.25023 19.509C3.79474 19.3353 3.38082 19.0681 3.03525 18.7245C2.68969 18.381 2.42018 17.9689 2.24415 17.5148C2.01477 16.8914 1.89208 16.2338 1.88121 15.5697C1.83103 14.4625 1.81936 14.1501 1.81936 11.3111C1.81936 8.47082 1.81936 8.18061 1.88121 7.05128C1.88876 6.37999 2.01152 5.71498 2.24415 5.08513C2.60009 4.16558 3.32947 3.44183 4.25023 3.08985C4.8741 2.85926 5.5328 2.73668 6.19797 2.72739C7.30779 2.67728 7.61938 2.66329 10.4634 2.66329C13.3074 2.66329 13.5991 2.66329 14.7276 2.72739C15.3933 2.73539 16.0526 2.85801 16.6765 3.08985C17.1304 3.26499 17.5426 3.53297 17.8867 3.87658C18.2307 4.22019 18.4991 4.63185 18.6744 5.08513C18.9038 5.7086 19.0265 6.36617 19.0374 7.0303C19.0875 8.13866 19.1004 8.44984 19.1004 11.2901C19.1004 14.1292 19.1004 14.4345 19.0502 15.5487H19.0374V15.5475Z" fill="#F1FAFF"/>
</g>
</svg>
