<svg width="22" height="22" viewBox="0 0 22 22" fill="none" xmlns="http://www.w3.org/2000/svg">
<g id="entypo-social:linkedin">
<path id="Vector" d="M5.66159 3.98965C5.66159 5.10319 4.91615 6.06156 3.5607 6.06156C2.28505 6.06156 1.46191 5.15772 1.46191 4.04417C1.46191 2.90127 2.25985 1.89258 3.56175 1.89258C4.86365 1.89258 5.63639 2.84675 5.66159 3.98965ZM1.46191 20.7662V7.13526H5.66159V20.7662H1.46191ZM7.76143 11.7949C7.76143 10.175 7.70788 8.8213 7.65434 7.65218H11.4277L11.6146 9.45881H11.6944C12.2257 8.60845 13.5276 7.36174 15.7072 7.36174C18.3656 7.36174 20.3605 9.13901 20.3605 12.963V20.7662H16.1608V13.5722C16.1608 11.9009 15.5235 10.6258 14.0609 10.6258C12.9459 10.6258 12.3874 11.5276 12.0944 12.271C11.9874 12.5373 11.9611 12.9085 11.9611 13.2807V20.7662H7.76143V11.7949Z" fill="#032B44"/>
</g>
</svg>
